<svg id="visual" viewBox="0 0 900 600" width="900" height="600" xmlns="http://www.w3.org/2000/svg" xmlns:xlink="http://www.w3.org/1999/xlink" version="1.1"><rect x="0" y="0" width="900" height="600" fill="#002233"></rect><path d="M0 95L11.5 101.7C23 108.3 46 121.7 69 122.8C92 124 115 113 138.2 109.7C161.3 106.3 184.7 110.7 207.8 115.8C231 121 254 127 277 130.8C300 134.7 323 136.3 346 139C369 141.7 392 145.3 415.2 136.5C438.3 127.7 461.7 106.3 484.8 103.3C508 100.3 531 115.7 554 123.2C577 130.7 600 130.3 623 128C646 125.7 669 121.3 692.2 118.2C715.3 115 738.7 113 761.8 116.3C785 119.7 808 128.3 831 125C854 121.7 877 106.3 888.5 98.7L900 91L900 0L888.5 0C877 0 854 0 831 0C808 0 785 0 761.8 0C738.7 0 715.3 0 692.2 0C669 0 646 0 623 0C600 0 577 0 554 0C531 0 508 0 484.8 0C461.7 0 438.3 0 415.2 0C392 0 369 0 346 0C323 0 300 0 277 0C254 0 231 0 207.8 0C184.7 0 161.3 0 138.2 0C115 0 92 0 69 0C46 0 23 0 11.5 0L0 0Z" fill="#0066FF" stroke-linecap="round" stroke-linejoin="miter"></path></svg>