<svg width="128" height="71" viewBox="0 0 128 71" fill="none" xmlns="http://www.w3.org/2000/svg">
<path d="M78.5781 46.2969C78.2656 46.7344 77.9062 47.0625 77.5 47.2812C77.0938 47.5312 76.7031 47.7031 76.3281 47.7969C75.8906 47.9219 75.4219 47.9688 74.9219 47.9375C74.7344 47.9375 74.5312 47.8906 74.3125 47.7969C74.125 47.7344 73.9219 47.6406 73.7031 47.5156C73.4844 47.4219 73.2969 47.2656 73.1406 47.0469C72.7031 45.4844 72.3125 43.9688 71.9688 42.5C71.625 41.0312 71.3281 39.7188 71.0781 38.5625C70.7656 37.2188 70.5 35.9531 70.2812 34.7656C69.4375 34.7344 68.1719 34.7344 66.4844 34.7656C64.8281 34.7656 63.0312 34.8594 61.0938 35.0469C60.5 36.9219 60.0312 38.5 59.6875 39.7812C59.3438 41.0625 59.0938 42.125 58.9375 42.9688C58.7812 43.8125 58.7188 44.5 58.75 45.0312C58.7812 45.5938 58.875 46.0781 59.0312 46.4844C58.5938 46.9219 58.1562 47.2344 57.7188 47.4219C57.3125 47.6406 56.9375 47.7812 56.5938 47.8438C56.1875 47.9375 55.7969 47.9688 55.4219 47.9375C54.9219 47.875 54.5156 47.7812 54.2031 47.6562C53.8906 47.5625 53.6562 47.3906 53.5 47.1406C53.375 46.9219 53.3281 46.5938 53.3594 46.1562C53.4219 45.7188 53.5469 45.1406 53.7344 44.4219C53.9219 43.7969 54.2656 42.6875 54.7656 41.0938C55.2969 39.4688 55.8906 37.625 56.5469 35.5625C55.3594 35.6562 54.4375 35.5938 53.7812 35.375C53.1562 35.1562 52.7188 34.5625 52.4688 33.5938C52.9688 33.4375 53.5 33.2969 54.0625 33.1719C54.6562 33.0156 55.2188 32.875 55.75 32.75C56.3438 32.625 56.9531 32.5156 57.5781 32.4219C58.2344 30.3594 58.9062 28.3281 59.5938 26.3281C60.2812 24.3281 60.9219 22.5312 61.5156 20.9375L64.2344 13.6719C64.2969 13.4844 64.625 13.2812 65.2188 13.0625C65.8125 12.8438 66.4688 12.6719 67.1875 12.5469C67.9062 12.3906 68.5938 12.3125 69.25 12.3125C69.9062 12.3125 70.3281 12.4531 70.5156 12.7344C70.6094 13.3906 70.7344 14.2031 70.8906 15.1719C71.0781 16.1406 71.25 17.0781 71.4062 17.9844C71.5938 19.0469 71.8125 20.1406 72.0625 21.2656C72.3438 22.8281 72.6406 24.5625 72.9531 26.4688C73.2969 28.375 73.7188 30.4062 74.2188 32.5625C74.7188 34.7188 75.3125 36.9531 76 39.2656C76.6875 41.5781 77.5469 43.9219 78.5781 46.2969ZM65.5469 31.625C66.5469 31.5938 67.375 31.5781 68.0312 31.5781C68.6875 31.5781 69.25 31.5938 69.7188 31.625L69.5781 30.9219C69.3906 29.7656 69.1875 28.5312 68.9688 27.2188C68.7812 25.9062 68.5781 24.6094 68.3594 23.3281C68.1719 22.0469 67.9844 20.8281 67.7969 19.6719C67.6094 18.5156 67.4531 17.5 67.3281 16.625C67.0156 17.4375 66.6562 18.4219 66.25 19.5781C65.8438 20.7031 65.4062 21.9375 64.9375 23.2812C64.4688 24.625 63.9844 26.0312 63.4844 27.5C63.0156 28.9688 62.5469 30.4219 62.0781 31.8594C62.6406 31.7969 63.2031 31.75 63.7656 31.7188C64.3281 31.6875 64.9219 31.6562 65.5469 31.625ZM82.9375 39.125C83.5312 39.125 84.0156 39.2969 84.3906 39.6406C84.7969 39.9844 85 40.4688 85 41.0938C85 41.4688 84.9219 41.8594 84.7656 42.2656C84.6406 42.6719 84.4062 43.0625 84.0625 43.4375C83.75 43.7812 83.3281 44.0625 82.7969 44.2812C82.2969 44.5312 81.6875 44.6562 80.9688 44.6562C80.3438 44.6562 79.8594 44.4688 79.5156 44.0938C79.2031 43.7188 79.0469 43.25 79.0469 42.6875C79.0469 41.75 79.4219 40.9219 80.1719 40.2031C80.9219 39.4844 81.8438 39.125 82.9375 39.125ZM93.3438 35.5156C92.8125 35.9531 92.5156 36.7344 92.4531 37.8594C92.4219 38.9531 92.6094 40.0781 93.0156 41.2344C93.4531 42.3594 94.1094 43.3594 94.9844 44.2344C95.8594 45.1094 96.9531 45.5469 98.2656 45.5469C99.1094 45.5469 99.8281 45.3438 100.422 44.9375C101.047 44.5312 101.547 44.0312 101.922 43.4375C102.328 42.8125 102.625 42.125 102.812 41.375C103 40.625 103.094 39.8906 103.094 39.1719C103.094 38.1406 102.891 37.2812 102.484 36.5938C102.109 35.9062 101.594 35.3125 100.938 34.8125C100.312 34.2812 99.5781 33.8438 98.7344 33.5C97.9219 33.125 97.0938 32.75 96.25 32.375C95.4688 32.0625 94.5312 31.6719 93.4375 31.2031C92.3438 30.7031 91.2969 30.0625 90.2969 29.2812C89.2969 28.4688 88.4375 27.4844 87.7188 26.3281C87.0312 25.1406 86.6875 23.6875 86.6875 21.9688C86.6875 20.8438 86.9844 19.7031 87.5781 18.5469C88.1719 17.3906 89.0156 16.3438 90.1094 15.4062C91.2031 14.4375 92.5156 13.6562 94.0469 13.0625C95.6094 12.4688 97.3594 12.1719 99.2969 12.1719C101.203 12.1719 102.75 12.3437 103.938 12.6875C105.125 13.0313 106.047 13.4844 106.703 14.0469C107.359 14.5781 107.797 15.1719 108.016 15.8281C108.266 16.4531 108.391 17.0469 108.391 17.6094C108.391 18.1719 108.219 18.75 107.875 19.3438C107.531 19.9062 107.125 20.4375 106.656 20.9375C106.188 21.4062 105.703 21.8281 105.203 22.2031C104.703 22.5469 104.297 22.7812 103.984 22.9062C104.141 22.5 104.297 21.9375 104.453 21.2188C104.609 20.5 104.562 19.7812 104.312 19.0625C104.094 18.3438 103.547 17.7188 102.672 17.1875C101.828 16.6562 100.453 16.3906 98.5469 16.3906C97.4531 16.3906 96.3906 16.5625 95.3594 16.9062C94.3281 17.25 93.4062 17.7031 92.5938 18.2656C91.8125 18.7969 91.1875 19.4062 90.7188 20.0938C90.25 20.7812 90.0156 21.4844 90.0156 22.2031C90.0156 22.8906 90.25 23.5312 90.7188 24.125C91.2188 24.6875 91.875 25.2344 92.6875 25.7656C93.5312 26.2656 94.4844 26.7656 95.5469 27.2656C96.6406 27.7656 97.7812 28.2656 98.9688 28.7656C100.125 29.2656 101.266 29.8125 102.391 30.4062C103.516 30.9688 104.516 31.625 105.391 32.375C106.297 33.125 107.016 33.9688 107.547 34.9062C108.078 35.8438 108.344 36.9219 108.344 38.1406C108.344 39.4531 108.094 40.7188 107.594 41.9375C107.125 43.125 106.438 44.1719 105.531 45.0781C104.656 45.9844 103.578 46.7031 102.297 47.2344C101.016 47.7969 99.5625 48.0781 97.9375 48.0781C96.5 48.0781 95.1406 47.8438 93.8594 47.375C92.5781 46.9062 91.4531 46.2969 90.4844 45.5469C89.5469 44.7969 88.7969 43.9688 88.2344 43.0625C87.6719 42.1562 87.3906 41.2656 87.3906 40.3906C87.3906 39.4531 87.5938 38.6562 88 38C88.4375 37.3438 88.9688 36.8281 89.5938 36.4531C90.2188 36.0469 90.8594 35.7656 91.5156 35.6094C92.2031 35.4531 92.8125 35.4219 93.3438 35.5156Z" fill="#C65300"/>
<path d="M78.5781 46.2969C78.2656 46.7344 77.9062 47.0625 77.5 47.2812C77.0938 47.5312 76.7031 47.7031 76.3281 47.7969C75.8906 47.9219 75.4219 47.9688 74.9219 47.9375C74.7344 47.9375 74.5312 47.8906 74.3125 47.7969C74.125 47.7344 73.9219 47.6406 73.7031 47.5156C73.4844 47.4219 73.2969 47.2656 73.1406 47.0469C72.7031 45.4844 72.3125 43.9688 71.9688 42.5C71.625 41.0312 71.3281 39.7188 71.0781 38.5625C70.7656 37.2188 70.5 35.9531 70.2812 34.7656C69.4375 34.7344 68.1719 34.7344 66.4844 34.7656C64.8281 34.7656 63.0312 34.8594 61.0938 35.0469C60.5 36.9219 60.0312 38.5 59.6875 39.7812C59.3438 41.0625 59.0938 42.125 58.9375 42.9688C58.7812 43.8125 58.7188 44.5 58.75 45.0312C58.7812 45.5938 58.875 46.0781 59.0312 46.4844C58.5938 46.9219 58.1562 47.2344 57.7188 47.4219C57.3125 47.6406 56.9375 47.7812 56.5938 47.8438C56.1875 47.9375 55.7969 47.9688 55.4219 47.9375C54.9219 47.875 54.5156 47.7812 54.2031 47.6562C53.8906 47.5625 53.6562 47.3906 53.5 47.1406C53.375 46.9219 53.3281 46.5938 53.3594 46.1562C53.4219 45.7188 53.5469 45.1406 53.7344 44.4219C53.9219 43.7969 54.2656 42.6875 54.7656 41.0938C55.2969 39.4688 55.8906 37.625 56.5469 35.5625C55.3594 35.6562 54.4375 35.5938 53.7812 35.375C53.1562 35.1562 52.7188 34.5625 52.4688 33.5938C52.9688 33.4375 53.5 33.2969 54.0625 33.1719C54.6562 33.0156 55.2188 32.875 55.75 32.75C56.3438 32.625 56.9531 32.5156 57.5781 32.4219C58.2344 30.3594 58.9062 28.3281 59.5938 26.3281C60.2812 24.3281 60.9219 22.5312 61.5156 20.9375L64.2344 13.6719C64.2969 13.4844 64.625 13.2812 65.2188 13.0625C65.8125 12.8438 66.4688 12.6719 67.1875 12.5469C67.9062 12.3906 68.5938 12.3125 69.25 12.3125C69.9062 12.3125 70.3281 12.4531 70.5156 12.7344C70.6094 13.3906 70.7344 14.2031 70.8906 15.1719C71.0781 16.1406 71.25 17.0781 71.4062 17.9844C71.5938 19.0469 71.8125 20.1406 72.0625 21.2656C72.3438 22.8281 72.6406 24.5625 72.9531 26.4688C73.2969 28.375 73.7188 30.4062 74.2188 32.5625C74.7188 34.7188 75.3125 36.9531 76 39.2656C76.6875 41.5781 77.5469 43.9219 78.5781 46.2969ZM65.5469 31.625C66.5469 31.5938 67.375 31.5781 68.0312 31.5781C68.6875 31.5781 69.25 31.5938 69.7188 31.625L69.5781 30.9219C69.3906 29.7656 69.1875 28.5312 68.9688 27.2188C68.7812 25.9062 68.5781 24.6094 68.3594 23.3281C68.1719 22.0469 67.9844 20.8281 67.7969 19.6719C67.6094 18.5156 67.4531 17.5 67.3281 16.625C67.0156 17.4375 66.6562 18.4219 66.25 19.5781C65.8438 20.7031 65.4062 21.9375 64.9375 23.2812C64.4688 24.625 63.9844 26.0312 63.4844 27.5C63.0156 28.9688 62.5469 30.4219 62.0781 31.8594C62.6406 31.7969 63.2031 31.75 63.7656 31.7188C64.3281 31.6875 64.9219 31.6562 65.5469 31.625ZM82.9375 39.125C83.5312 39.125 84.0156 39.2969 84.3906 39.6406C84.7969 39.9844 85 40.4688 85 41.0938C85 41.4688 84.9219 41.8594 84.7656 42.2656C84.6406 42.6719 84.4062 43.0625 84.0625 43.4375C83.75 43.7812 83.3281 44.0625 82.7969 44.2812C82.2969 44.5312 81.6875 44.6562 80.9688 44.6562C80.3438 44.6562 79.8594 44.4688 79.5156 44.0938C79.2031 43.7188 79.0469 43.25 79.0469 42.6875C79.0469 41.75 79.4219 40.9219 80.1719 40.2031C80.9219 39.4844 81.8438 39.125 82.9375 39.125ZM93.3438 35.5156C92.8125 35.9531 92.5156 36.7344 92.4531 37.8594C92.4219 38.9531 92.6094 40.0781 93.0156 41.2344C93.4531 42.3594 94.1094 43.3594 94.9844 44.2344C95.8594 45.1094 96.9531 45.5469 98.2656 45.5469C99.1094 45.5469 99.8281 45.3438 100.422 44.9375C101.047 44.5312 101.547 44.0312 101.922 43.4375C102.328 42.8125 102.625 42.125 102.812 41.375C103 40.625 103.094 39.8906 103.094 39.1719C103.094 38.1406 102.891 37.2812 102.484 36.5938C102.109 35.9062 101.594 35.3125 100.938 34.8125C100.312 34.2812 99.5781 33.8438 98.7344 33.5C97.9219 33.125 97.0938 32.75 96.25 32.375C95.4688 32.0625 94.5312 31.6719 93.4375 31.2031C92.3438 30.7031 91.2969 30.0625 90.2969 29.2812C89.2969 28.4688 88.4375 27.4844 87.7188 26.3281C87.0312 25.1406 86.6875 23.6875 86.6875 21.9688C86.6875 20.8438 86.9844 19.7031 87.5781 18.5469C88.1719 17.3906 89.0156 16.3438 90.1094 15.4062C91.2031 14.4375 92.5156 13.6562 94.0469 13.0625C95.6094 12.4688 97.3594 12.1719 99.2969 12.1719C101.203 12.1719 102.75 12.3437 103.938 12.6875C105.125 13.0313 106.047 13.4844 106.703 14.0469C107.359 14.5781 107.797 15.1719 108.016 15.8281C108.266 16.4531 108.391 17.0469 108.391 17.6094C108.391 18.1719 108.219 18.75 107.875 19.3438C107.531 19.9062 107.125 20.4375 106.656 20.9375C106.188 21.4062 105.703 21.8281 105.203 22.2031C104.703 22.5469 104.297 22.7812 103.984 22.9062C104.141 22.5 104.297 21.9375 104.453 21.2188C104.609 20.5 104.562 19.7812 104.312 19.0625C104.094 18.3438 103.547 17.7188 102.672 17.1875C101.828 16.6562 100.453 16.3906 98.5469 16.3906C97.4531 16.3906 96.3906 16.5625 95.3594 16.9062C94.3281 17.25 93.4062 17.7031 92.5938 18.2656C91.8125 18.7969 91.1875 19.4062 90.7188 20.0938C90.25 20.7812 90.0156 21.4844 90.0156 22.2031C90.0156 22.8906 90.25 23.5312 90.7188 24.125C91.2188 24.6875 91.875 25.2344 92.6875 25.7656C93.5312 26.2656 94.4844 26.7656 95.5469 27.2656C96.6406 27.7656 97.7812 28.2656 98.9688 28.7656C100.125 29.2656 101.266 29.8125 102.391 30.4062C103.516 30.9688 104.516 31.625 105.391 32.375C106.297 33.125 107.016 33.9688 107.547 34.9062C108.078 35.8438 108.344 36.9219 108.344 38.1406C108.344 39.4531 108.094 40.7188 107.594 41.9375C107.125 43.125 106.438 44.1719 105.531 45.0781C104.656 45.9844 103.578 46.7031 102.297 47.2344C101.016 47.7969 99.5625 48.0781 97.9375 48.0781C96.5 48.0781 95.1406 47.8438 93.8594 47.375C92.5781 46.9062 91.4531 46.2969 90.4844 45.5469C89.5469 44.7969 88.7969 43.9688 88.2344 43.0625C87.6719 42.1562 87.3906 41.2656 87.3906 40.3906C87.3906 39.4531 87.5938 38.6562 88 38C88.4375 37.3438 88.9688 36.8281 89.5938 36.4531C90.2188 36.0469 90.8594 35.7656 91.5156 35.6094C92.2031 35.4531 92.8125 35.4219 93.3438 35.5156Z" fill="url(#paint0_linear)"/>
<path d="M58.5742 56.293C58.5742 56.4505 58.5169 56.694 58.4023 57.0234C58.3021 57.3385 58.1302 57.6608 57.8867 57.9902C57.6432 58.3053 57.3281 58.5846 56.9414 58.8281C56.569 59.0716 56.1107 59.1934 55.5664 59.1934C54.793 59.1934 54.1413 58.9857 53.6113 58.5703C53.0957 58.1406 52.7305 57.5319 52.5156 56.7441C52.3438 56.0853 52.2936 55.3835 52.3652 54.6387C52.4512 53.8796 52.6589 53.1777 52.9883 52.5332C53.3177 51.8887 53.776 51.3444 54.3633 50.9004C54.9505 50.4421 55.6667 50.1914 56.5117 50.1484C56.9414 50.1341 57.2995 50.2129 57.5859 50.3848C57.8724 50.5566 58.0944 50.7786 58.252 51.0508C58.4095 51.3229 58.5026 51.6237 58.5312 51.9531C58.5599 52.2682 58.5241 52.569 58.4238 52.8555C58.3379 53.1419 58.1947 53.3854 57.9941 53.5859C57.8079 53.7721 57.5645 53.8724 57.2637 53.8867C56.9629 53.9154 56.7122 53.8796 56.5117 53.7793C56.3255 53.6647 56.1751 53.5286 56.0605 53.3711C55.9603 53.2135 55.8887 53.0488 55.8457 52.877C55.8171 52.7051 55.8171 52.5547 55.8457 52.4258C55.8887 52.2396 55.9603 52.0677 56.0605 51.9102C56.1465 51.7669 56.2682 51.6237 56.4258 51.4805C56.5977 51.3372 56.8197 51.2227 57.0918 51.1367C57.0488 51.1081 57.0059 51.0938 56.9629 51.0938C56.9199 51.0938 56.877 51.0866 56.834 51.0723C56.7767 51.0723 56.7337 51.0651 56.7051 51.0508C56.4759 51.0508 56.2109 51.1296 55.9102 51.2871C55.6237 51.4447 55.3444 51.6953 55.0723 52.0391C54.8145 52.3828 54.5924 52.8268 54.4062 53.3711C54.2344 53.901 54.1484 54.5456 54.1484 55.3047C54.1484 55.6341 54.1842 55.9635 54.2559 56.293C54.3275 56.6081 54.4349 56.8945 54.5781 57.1523C54.7357 57.3958 54.9219 57.5964 55.1367 57.7539C55.3659 57.8971 55.6309 57.9688 55.9316 57.9688C56.2754 57.9688 56.5762 57.8971 56.834 57.7539C57.1061 57.5964 57.3353 57.4173 57.5215 57.2168C57.7077 57.0163 57.8509 56.8158 57.9512 56.6152C58.0658 56.4147 58.1445 56.2643 58.1875 56.1641C58.2305 56.0781 58.3021 56.0352 58.4023 56.0352C58.5169 56.0352 58.5742 56.1211 58.5742 56.293ZM65.75 55.3047C65.7214 55.8633 65.6211 56.3789 65.4492 56.8516C65.2917 57.3242 65.0697 57.7396 64.7832 58.0977C64.4967 58.4414 64.153 58.7135 63.752 58.9141C63.3652 59.1146 62.9355 59.222 62.4629 59.2363C62.0475 59.2507 61.6536 59.1504 61.2812 58.9355C60.9232 58.7207 60.6081 58.4199 60.3359 58.0332C60.0638 57.6465 59.8561 57.1882 59.7129 56.6582C59.584 56.1139 59.5482 55.5267 59.6055 54.8965C59.6484 54.166 59.7845 53.543 60.0137 53.0273C60.2428 52.4974 60.4863 52.0605 60.7441 51.7168C61.002 51.373 61.2383 51.1224 61.4531 50.9648C61.6823 50.793 61.8255 50.6927 61.8828 50.6641C61.9831 50.6211 62.0762 50.6139 62.1621 50.6426C62.248 50.6569 62.3411 50.6784 62.4414 50.707C62.4701 50.7214 62.4987 50.7572 62.5273 50.8145C62.5846 50.9147 62.6204 51.1009 62.6348 51.373C62.7064 51.2155 62.7995 51.0866 62.9141 50.9863C63.0286 50.8861 63.1432 50.8145 63.2578 50.7715C63.401 50.7142 63.5443 50.6784 63.6875 50.6641C63.7878 50.6497 63.9596 50.7285 64.2031 50.9004C64.4609 51.0723 64.7044 51.3444 64.9336 51.7168C65.1771 52.0892 65.3848 52.5762 65.5566 53.1777C65.7285 53.765 65.793 54.474 65.75 55.3047ZM64.2891 55.0469C64.3034 54.7031 64.2891 54.3594 64.2461 54.0156C64.2174 53.6576 64.1602 53.3353 64.0742 53.0488C64.0026 52.748 63.9095 52.5117 63.7949 52.3398C63.6803 52.1536 63.5658 52.0605 63.4512 52.0605C63.3223 52.0892 63.179 52.1536 63.0215 52.2539C62.8926 52.3398 62.7493 52.4759 62.5918 52.6621C62.4342 52.8483 62.2839 53.1133 62.1406 53.457C62.1263 53.4141 62.112 53.3353 62.0977 53.2207C62.0833 53.1204 62.069 52.9915 62.0547 52.834C62.0547 52.6621 62.069 52.4329 62.0977 52.1465C61.8971 52.39 61.7396 52.6764 61.625 53.0059C61.5247 53.3353 61.446 53.6504 61.3887 53.9512C61.3314 54.3092 61.2884 54.6673 61.2598 55.0254C61.2454 55.4121 61.2598 55.7917 61.3027 56.1641C61.36 56.5365 61.446 56.8659 61.5605 57.1523C61.6895 57.4388 61.8398 57.668 62.0117 57.8398C62.1836 58.0117 62.3913 58.0905 62.6348 58.0762C62.8783 58.0618 63.0931 57.9616 63.2793 57.7754C63.4655 57.5892 63.6302 57.3529 63.7734 57.0664C63.9167 56.7799 64.0312 56.4577 64.1172 56.0996C64.2031 55.7415 64.2604 55.3906 64.2891 55.0469ZM71.6582 52.2969C71.5436 52.2969 71.4147 52.3613 71.2715 52.4902C71.1426 52.6048 71.0137 52.7695 70.8848 52.9844C70.7559 53.1849 70.627 53.4141 70.498 53.6719C70.3691 53.9154 70.2546 54.166 70.1543 54.4238C69.9108 55.0254 69.6745 55.6413 69.4453 56.2715C69.2161 56.9017 69.0801 57.446 69.0371 57.9043C69.0228 57.9473 69.0156 57.9902 69.0156 58.0332C69.0156 58.0618 69.0156 58.0905 69.0156 58.1191C69.0013 58.1478 68.9941 58.1908 68.9941 58.248C68.9655 58.4486 68.9225 58.6133 68.8652 58.7422C68.8223 58.8568 68.722 58.9355 68.5645 58.9785C68.3926 59.0072 68.2207 59.0286 68.0488 59.043C67.877 59.0573 67.7122 59.043 67.5547 59C67.4544 58.9714 67.3757 58.9212 67.3184 58.8496C67.2754 58.7637 67.2396 58.6706 67.2109 58.5703C67.1966 58.4557 67.1823 58.3483 67.168 58.248C67.168 58.1478 67.168 58.0618 67.168 57.9902C67.168 57.9043 67.1751 57.6393 67.1895 57.1953C67.2038 56.737 67.2181 56.2214 67.2324 55.6484C67.2467 55.0755 67.2539 54.5169 67.2539 53.9727C67.2539 53.4141 67.2467 52.9915 67.2324 52.7051C67.2038 52.5046 67.1751 52.3184 67.1465 52.1465C67.1178 51.9889 67.082 51.8314 67.0391 51.6738C67.0104 51.5163 66.9603 51.3802 66.8887 51.2656C67.0462 51.1797 67.2038 51.1081 67.3613 51.0508C67.5189 50.9935 67.6621 50.9505 67.791 50.9219C67.9486 50.8789 68.0918 50.8503 68.2207 50.8359C68.5645 50.8073 68.8294 50.8073 69.0156 50.8359C69.2161 50.8646 69.3164 51.015 69.3164 51.2871C69.3164 51.5306 69.2949 51.9102 69.252 52.4258C69.2233 52.9271 69.1875 53.6289 69.1445 54.5312C69.3021 54.1732 69.4883 53.7721 69.7031 53.3281C69.918 52.8698 70.1471 52.4473 70.3906 52.0605C70.6341 51.6595 70.8848 51.3301 71.1426 51.0723C71.4004 50.8001 71.6439 50.6641 71.873 50.6641C72.0306 50.6641 72.2096 50.6999 72.4102 50.7715C72.625 50.8288 72.8255 50.9147 73.0117 51.0293C73.1979 51.1296 73.3626 51.2441 73.5059 51.373C73.6634 51.502 73.7708 51.6309 73.8281 51.7598C73.8854 51.903 73.9212 52.125 73.9355 52.4258C73.9499 52.7266 73.9499 53.0632 73.9355 53.4355C74.0501 53.1634 74.179 52.8984 74.3223 52.6406C74.4655 52.3828 74.6087 52.1465 74.752 51.9316C74.9095 51.7025 75.0671 51.5091 75.2246 51.3516C75.3822 51.194 75.5254 51.0866 75.6543 51.0293C75.8262 50.9577 76.0339 50.9434 76.2773 50.9863C76.5208 51.0293 76.7572 51.1081 76.9863 51.2227C77.2298 51.3229 77.4375 51.4447 77.6094 51.5879C77.7956 51.7311 77.9102 51.8672 77.9531 51.9961C77.9961 52.1393 78.0319 52.3613 78.0605 52.6621C78.0892 52.9629 78.1107 53.2923 78.125 53.6504C78.1393 54.0085 78.1465 54.3809 78.1465 54.7676C78.1465 55.14 78.1393 55.4694 78.125 55.7559C78.0964 56.5866 78.1035 57.2454 78.1465 57.7324C78.1895 58.2051 78.3613 58.556 78.6621 58.7852C78.4616 58.9141 78.2754 59.0072 78.1035 59.0645C77.9316 59.1361 77.7812 59.1862 77.6523 59.2148C77.4948 59.2578 77.3587 59.2793 77.2441 59.2793C77.0866 59.2793 76.9577 59.2363 76.8574 59.1504C76.7572 59.0788 76.6784 58.9785 76.6211 58.8496C76.5638 58.7207 76.528 58.5775 76.5137 58.4199C76.4993 58.2624 76.4922 58.1048 76.4922 57.9473C76.4922 57.804 76.4993 57.5677 76.5137 57.2383C76.5423 56.8945 76.5638 56.5078 76.5781 56.0781C76.5924 55.6484 76.5924 55.2116 76.5781 54.7676C76.5638 54.3092 76.528 53.8939 76.4707 53.5215C76.4277 53.1348 76.349 52.8197 76.2344 52.5762C76.1198 52.3327 75.9622 52.2109 75.7617 52.2109C75.5898 52.2109 75.4251 52.3184 75.2676 52.5332C75.11 52.7337 74.9596 53.0059 74.8164 53.3496C74.6732 53.679 74.5443 54.0514 74.4297 54.4668C74.3294 54.8678 74.2363 55.2689 74.1504 55.6699C74.0645 56.071 74 56.4434 73.957 56.7871C73.9141 57.1165 73.8926 57.3815 73.8926 57.582L73.8711 57.3887C73.8711 57.6608 73.8711 57.9115 73.8711 58.1406C73.8854 58.3698 73.8997 58.599 73.9141 58.8281C73.9284 58.9141 73.8496 58.9857 73.6777 59.043C73.5059 59.1146 73.3125 59.1432 73.0977 59.1289C72.8971 59.1289 72.7109 59.0859 72.5391 59C72.3672 58.9141 72.2812 58.7708 72.2812 58.5703C72.2812 58.4271 72.2812 58.2122 72.2812 57.9258C72.2812 57.6393 72.2741 57.3171 72.2598 56.959C72.2598 56.6009 72.2526 56.2285 72.2383 55.8418C72.2383 55.4408 72.2311 55.0612 72.2168 54.7031C72.2168 54.431 72.2096 54.1517 72.1953 53.8652C72.1953 53.5788 72.181 53.321 72.1523 53.0918C72.1237 52.8483 72.0664 52.6549 71.9805 52.5117C71.9089 52.3685 71.8014 52.2969 71.6582 52.2969ZM83.9688 50.4922C84.3698 50.4922 84.7422 50.6068 85.0859 50.8359C85.4297 51.0651 85.7233 51.3659 85.9668 51.7383C86.2103 52.1107 86.4036 52.5404 86.5469 53.0273C86.6901 53.5 86.7617 53.9941 86.7617 54.5098C86.7617 55.0254 86.7044 55.5697 86.5898 56.1426C86.4753 56.7155 86.2962 57.2454 86.0527 57.7324C85.8092 58.2194 85.4941 58.6276 85.1074 58.957C84.7207 59.2721 84.248 59.4297 83.6895 59.4297C83.2454 59.4297 82.8229 59.2721 82.4219 58.957C82.0352 58.6276 81.7344 58.2194 81.5195 57.7324C81.4909 58.2337 81.4264 58.7422 81.3262 59.2578C81.2259 59.7878 81.1758 60.418 81.1758 61.1484C81.1758 61.3633 81.1829 61.6068 81.1973 61.8789C81.2116 62.151 81.2331 62.4232 81.2617 62.6953C81.2904 62.9674 81.3333 63.2181 81.3906 63.4473C81.4479 63.6764 81.5124 63.8555 81.584 63.9844C81.3405 64.1276 81.1185 64.235 80.918 64.3066C80.7318 64.3783 80.5671 64.4284 80.4238 64.457C80.2663 64.5 80.1159 64.5215 79.9727 64.5215C79.7865 64.5215 79.6647 64.4427 79.6074 64.2852C79.5501 64.1276 79.5215 63.8483 79.5215 63.4473C79.5215 63.1895 79.5286 62.8171 79.543 62.3301C79.5716 61.8574 79.6003 61.3132 79.6289 60.6973C79.6719 60.0814 79.7077 59.4368 79.7363 58.7637C79.7793 58.0762 79.8151 57.403 79.8438 56.7441C79.8867 56.0853 79.9154 55.4766 79.9297 54.918C79.9583 54.3451 79.9727 53.8652 79.9727 53.4785C79.9727 53.0059 79.9655 52.6406 79.9512 52.3828C79.9368 52.1107 79.9154 51.9102 79.8867 51.7812C79.8724 51.638 79.8509 51.5378 79.8223 51.4805C79.7936 51.4232 79.7578 51.3587 79.7148 51.2871C79.8438 51.1868 79.9941 51.1009 80.166 51.0293C80.3522 50.9434 80.5312 50.8861 80.7031 50.8574C80.8893 50.8145 81.054 50.8001 81.1973 50.8145C81.3548 50.8288 81.4766 50.8646 81.5625 50.9219C81.6341 50.9935 81.6842 51.1009 81.7129 51.2441C81.7559 51.3874 81.7917 51.6022 81.8203 51.8887C82.0924 51.5163 82.4004 51.194 82.7441 50.9219C83.1022 50.6354 83.5104 50.4922 83.9688 50.4922ZM83.1309 58.1621C83.3887 58.1621 83.6322 58.0404 83.8613 57.7969C84.1048 57.5534 84.3125 57.2454 84.4844 56.873C84.6706 56.4863 84.8138 56.0638 84.9141 55.6055C85.0286 55.1328 85.0859 54.6673 85.0859 54.209C85.0859 53.7077 85.0358 53.2995 84.9355 52.9844C84.8496 52.6549 84.735 52.3971 84.5918 52.2109C84.4629 52.0104 84.3197 51.8743 84.1621 51.8027C84.0189 51.7168 83.89 51.6738 83.7754 51.6738C83.5033 51.6738 83.2454 51.7884 83.002 52.0176C82.7585 52.2324 82.5436 52.5189 82.3574 52.877C82.1712 53.2207 82.0208 53.6074 81.9062 54.0371C81.806 54.4668 81.7559 54.8965 81.7559 55.3262C81.7559 55.7272 81.7917 56.0996 81.8633 56.4434C81.9492 56.7871 82.0566 57.0879 82.1855 57.3457C82.3145 57.6035 82.4577 57.804 82.6152 57.9473C82.7871 58.0905 82.959 58.1621 83.1309 58.1621ZM94.2168 57.9043C94.2454 58.0046 94.2884 58.0977 94.3457 58.1836C94.3887 58.2552 94.446 58.3268 94.5176 58.3984C94.6035 58.4557 94.7038 58.4915 94.8184 58.5059C94.7181 58.7064 94.6178 58.8424 94.5176 58.9141C94.4603 58.957 94.4102 58.9857 94.3672 59C94.2383 59.043 94.0449 59.0645 93.7871 59.0645C93.5293 59.0645 93.2786 58.9857 93.0352 58.8281C92.9492 58.7565 92.8704 58.6491 92.7988 58.5059C92.7272 58.3913 92.6628 58.2337 92.6055 58.0332C92.5625 57.8184 92.5267 57.5462 92.498 57.2168C92.2975 57.6465 92.0684 57.9902 91.8105 58.248C91.5671 58.4915 91.3236 58.6706 91.0801 58.7852C90.8079 58.9427 90.5286 59.0358 90.2422 59.0645C89.8841 59.0931 89.5404 59.0358 89.2109 58.8926C88.8958 58.735 88.6237 58.5059 88.3945 58.2051C88.1797 57.89 88.015 57.5104 87.9004 57.0664C87.7858 56.6224 87.75 56.1211 87.793 55.5625C87.8359 54.9753 87.9505 54.4525 88.1367 53.9941C88.3229 53.5358 88.5449 53.1276 88.8027 52.7695C89.0605 52.4115 89.3327 52.1107 89.6191 51.8672C89.9056 51.6094 90.1777 51.4017 90.4355 51.2441C90.7077 51.0723 90.9368 50.9505 91.123 50.8789C91.3236 50.793 91.4525 50.7428 91.5098 50.7285C91.6673 50.6855 91.8034 50.6712 91.918 50.6855C92.0326 50.6999 92.1328 50.7643 92.2188 50.8789C92.2474 50.9219 92.2832 50.972 92.3262 51.0293C92.3548 51.0866 92.3906 51.1654 92.4336 51.2656C92.4766 51.3516 92.5124 51.4518 92.541 51.5664C92.1973 51.724 91.875 51.903 91.5742 52.1035C91.2734 52.2897 90.9941 52.5189 90.7363 52.791C90.4928 53.0632 90.278 53.3926 90.0918 53.7793C89.9056 54.166 89.7624 54.6387 89.6621 55.1973C89.5189 55.8991 89.5547 56.4648 89.7695 56.8945C89.9987 57.3242 90.3066 57.5033 90.6934 57.4316C90.9225 57.36 91.1445 57.224 91.3594 57.0234C91.5456 56.8516 91.7389 56.5938 91.9395 56.25C92.1543 55.9062 92.3548 55.4336 92.541 54.832C92.6126 53.9727 92.6699 53.2995 92.7129 52.8125C92.7702 52.3112 92.8203 51.9316 92.8633 51.6738C92.9206 51.373 92.9635 51.1725 92.9922 51.0723C93.0352 51.0007 93.1211 50.9362 93.25 50.8789C93.3789 50.8073 93.5221 50.75 93.6797 50.707C93.8372 50.6641 93.9805 50.6426 94.1094 50.6426C94.2383 50.6283 94.3242 50.6283 94.3672 50.6426C94.3958 50.6569 94.4102 50.8359 94.4102 51.1797C94.4102 51.5091 94.3958 51.9316 94.3672 52.4473C94.3529 52.9486 94.3314 53.5 94.3027 54.1016C94.2741 54.6888 94.2454 55.2474 94.2168 55.7773C94.2025 56.3073 94.1882 56.7728 94.1738 57.1738C94.1738 57.5605 94.1882 57.804 94.2168 57.9043ZM98.2988 58.4199C98.2845 58.5059 98.2057 58.599 98.0625 58.6992C97.9336 58.7852 97.776 58.8639 97.5898 58.9355C97.418 59.0072 97.2533 59.0501 97.0957 59.0645C96.9382 59.0931 96.8307 59.0788 96.7734 59.0215C96.7161 58.9642 96.623 58.8568 96.4941 58.6992C96.3652 58.5417 96.2865 58.2839 96.2578 57.9258C96.2292 57.5534 96.2148 57.0879 96.2148 56.5293C96.2148 55.9564 96.2077 55.3262 96.1934 54.6387V53.7793C96.1934 53.5215 96.1862 53.2207 96.1719 52.877C96.1719 52.5332 96.1647 52.1751 96.1504 51.8027C96.2793 51.7311 96.4082 51.6667 96.5371 51.6094C96.6803 51.5378 96.8092 51.4805 96.9238 51.4375C97.0527 51.3802 97.1745 51.3372 97.2891 51.3086C97.5898 51.2227 97.819 51.1725 97.9766 51.1582C98.1341 51.1439 98.2272 51.194 98.2559 51.3086C98.2702 51.3945 98.263 51.6022 98.2344 51.9316C98.2057 52.2181 98.1699 52.6549 98.127 53.2422C98.084 53.8151 98.0124 54.6172 97.9121 55.6484C98.0983 55.1901 98.2487 54.7962 98.3633 54.4668C98.4922 54.1374 98.5996 53.8724 98.6855 53.6719C98.7715 53.4284 98.8503 53.235 98.9219 53.0918C98.9935 52.9056 99.0866 52.6979 99.2012 52.4688C99.3158 52.2396 99.4303 52.0247 99.5449 51.8242C99.6738 51.6237 99.7884 51.4447 99.8887 51.2871C100.003 51.1296 100.089 51.0365 100.146 51.0078C100.189 50.9792 100.318 50.9792 100.533 51.0078C100.748 51.0365 100.977 51.1081 101.221 51.2227C101.464 51.3229 101.701 51.4733 101.93 51.6738C102.159 51.86 102.309 52.0892 102.381 52.3613C102.467 52.6764 102.495 53.0918 102.467 53.6074C102.452 54.123 102.417 54.653 102.359 55.1973C102.316 55.7415 102.281 56.2572 102.252 56.7441C102.223 57.2311 102.252 57.6035 102.338 57.8613C102.367 58.0046 102.41 58.1335 102.467 58.248C102.495 58.3626 102.531 58.4701 102.574 58.5703C102.632 58.6562 102.689 58.7207 102.746 58.7637C102.402 58.9212 102.123 59.0358 101.908 59.1074C101.693 59.179 101.529 59.2292 101.414 59.2578C101.271 59.3008 101.171 59.3151 101.113 59.3008C100.984 59.2578 100.87 59.1504 100.77 58.9785C100.684 58.8066 100.605 58.5345 100.533 58.1621C100.505 58.0475 100.49 57.8613 100.49 57.6035C100.505 57.3314 100.526 57.0306 100.555 56.7012C100.583 56.3574 100.612 56.0065 100.641 55.6484C100.684 55.276 100.712 54.9323 100.727 54.6172C100.755 54.2878 100.777 54.0085 100.791 53.7793C100.805 53.5358 100.805 53.3711 100.791 53.2852C100.719 53.0273 100.619 52.8483 100.49 52.748C100.361 52.6335 100.261 52.6191 100.189 52.7051C100.003 52.9199 99.8027 53.2708 99.5879 53.7578C99.3874 54.2305 99.194 54.7533 99.0078 55.3262C98.8216 55.8848 98.6641 56.4434 98.5352 57.002C98.4062 57.5605 98.3275 58.0332 98.2988 58.4199ZM110.352 50.75C110.38 52.0104 110.402 53.1133 110.416 54.0586C110.43 55.0039 110.445 55.7988 110.459 56.4434C110.473 57.2025 110.48 57.8542 110.48 58.3984C110.495 59.0716 110.438 59.7663 110.309 60.4824C110.194 61.2129 110.001 61.8789 109.729 62.4805C109.456 63.082 109.098 63.5762 108.654 63.9629C108.21 64.3496 107.673 64.543 107.043 64.543C106.284 64.543 105.704 64.3854 105.303 64.0703C104.902 63.7695 104.608 63.4258 104.422 63.0391C104.236 62.6523 104.128 62.2871 104.1 61.9434C104.071 61.6139 104.057 61.4206 104.057 61.3633C104.057 61.2487 104.128 61.1198 104.271 60.9766C104.415 60.8333 104.63 60.7044 104.916 60.5898C105.031 60.5469 105.145 60.5111 105.26 60.4824C105.36 60.4538 105.46 60.4323 105.561 60.418C105.661 60.4036 105.754 60.4108 105.84 60.4395C105.697 60.6973 105.611 60.9909 105.582 61.3203C105.568 61.6497 105.611 61.9577 105.711 62.2441C105.826 62.5449 105.99 62.7956 106.205 62.9961C106.42 63.1966 106.692 63.2969 107.021 63.2969C107.48 63.2969 107.838 63.1608 108.096 62.8887C108.368 62.6309 108.568 62.3086 108.697 61.9219C108.84 61.5352 108.926 61.127 108.955 60.6973C108.998 60.2676 109.02 59.888 109.02 59.5586C109.02 59.3008 109.012 58.9714 108.998 58.5703C108.998 58.1549 108.977 57.6966 108.934 57.1953C108.762 57.4818 108.561 57.7611 108.332 58.0332C108.103 58.291 107.859 58.5202 107.602 58.7207C107.344 58.9212 107.079 59.0788 106.807 59.1934C106.549 59.3223 106.291 59.3867 106.033 59.3867C105.589 59.3867 105.231 59.2507 104.959 58.9785C104.687 58.6921 104.479 58.3411 104.336 57.9258C104.193 57.4961 104.092 57.0378 104.035 56.5508C103.992 56.0495 103.971 55.5911 103.971 55.1758C103.971 54.8607 103.985 54.4811 104.014 54.0371C104.042 53.5788 104.078 53.1419 104.121 52.7266C104.164 52.3112 104.214 51.9531 104.271 51.6523C104.343 51.3372 104.415 51.1582 104.486 51.1152C104.902 50.8717 105.31 50.7357 105.711 50.707C106.112 50.6784 106.413 50.7285 106.613 50.8574C106.441 50.9863 106.298 51.2012 106.184 51.502C106.069 51.8027 105.976 52.1393 105.904 52.5117C105.833 52.8698 105.783 53.2493 105.754 53.6504C105.725 54.0371 105.711 54.388 105.711 54.7031C105.711 54.9609 105.718 55.2689 105.732 55.627C105.747 55.985 105.775 56.3288 105.818 56.6582C105.876 56.9876 105.954 57.2669 106.055 57.4961C106.155 57.7253 106.284 57.8398 106.441 57.8398C106.757 57.8398 107.05 57.7253 107.322 57.4961C107.594 57.2669 107.831 56.9805 108.031 56.6367C108.246 56.293 108.411 55.9277 108.525 55.541C108.64 55.14 108.697 54.7676 108.697 54.4238V54.252C108.669 53.8796 108.64 53.5286 108.611 53.1992C108.583 52.8555 108.554 52.5475 108.525 52.2754C108.511 52.0033 108.497 51.7812 108.482 51.6094C108.482 51.4232 108.482 51.3014 108.482 51.2441C108.482 51.1009 108.576 50.972 108.762 50.8574C108.962 50.7428 109.177 50.6641 109.406 50.6211C109.65 50.5638 109.865 50.5423 110.051 50.5566C110.251 50.571 110.352 50.6354 110.352 50.75Z" fill="#FFE600"/>
<path d="M58.5742 56.293C58.5742 56.4505 58.5169 56.694 58.4023 57.0234C58.3021 57.3385 58.1302 57.6608 57.8867 57.9902C57.6432 58.3053 57.3281 58.5846 56.9414 58.8281C56.569 59.0716 56.1107 59.1934 55.5664 59.1934C54.793 59.1934 54.1413 58.9857 53.6113 58.5703C53.0957 58.1406 52.7305 57.5319 52.5156 56.7441C52.3438 56.0853 52.2936 55.3835 52.3652 54.6387C52.4512 53.8796 52.6589 53.1777 52.9883 52.5332C53.3177 51.8887 53.776 51.3444 54.3633 50.9004C54.9505 50.4421 55.6667 50.1914 56.5117 50.1484C56.9414 50.1341 57.2995 50.2129 57.5859 50.3848C57.8724 50.5566 58.0944 50.7786 58.252 51.0508C58.4095 51.3229 58.5026 51.6237 58.5312 51.9531C58.5599 52.2682 58.5241 52.569 58.4238 52.8555C58.3379 53.1419 58.1947 53.3854 57.9941 53.5859C57.8079 53.7721 57.5645 53.8724 57.2637 53.8867C56.9629 53.9154 56.7122 53.8796 56.5117 53.7793C56.3255 53.6647 56.1751 53.5286 56.0605 53.3711C55.9603 53.2135 55.8887 53.0488 55.8457 52.877C55.8171 52.7051 55.8171 52.5547 55.8457 52.4258C55.8887 52.2396 55.9603 52.0677 56.0605 51.9102C56.1465 51.7669 56.2682 51.6237 56.4258 51.4805C56.5977 51.3372 56.8197 51.2227 57.0918 51.1367C57.0488 51.1081 57.0059 51.0938 56.9629 51.0938C56.9199 51.0938 56.877 51.0866 56.834 51.0723C56.7767 51.0723 56.7337 51.0651 56.7051 51.0508C56.4759 51.0508 56.2109 51.1296 55.9102 51.2871C55.6237 51.4447 55.3444 51.6953 55.0723 52.0391C54.8145 52.3828 54.5924 52.8268 54.4062 53.3711C54.2344 53.901 54.1484 54.5456 54.1484 55.3047C54.1484 55.6341 54.1842 55.9635 54.2559 56.293C54.3275 56.6081 54.4349 56.8945 54.5781 57.1523C54.7357 57.3958 54.9219 57.5964 55.1367 57.7539C55.3659 57.8971 55.6309 57.9688 55.9316 57.9688C56.2754 57.9688 56.5762 57.8971 56.834 57.7539C57.1061 57.5964 57.3353 57.4173 57.5215 57.2168C57.7077 57.0163 57.8509 56.8158 57.9512 56.6152C58.0658 56.4147 58.1445 56.2643 58.1875 56.1641C58.2305 56.0781 58.3021 56.0352 58.4023 56.0352C58.5169 56.0352 58.5742 56.1211 58.5742 56.293ZM65.75 55.3047C65.7214 55.8633 65.6211 56.3789 65.4492 56.8516C65.2917 57.3242 65.0697 57.7396 64.7832 58.0977C64.4967 58.4414 64.153 58.7135 63.752 58.9141C63.3652 59.1146 62.9355 59.222 62.4629 59.2363C62.0475 59.2507 61.6536 59.1504 61.2812 58.9355C60.9232 58.7207 60.6081 58.4199 60.3359 58.0332C60.0638 57.6465 59.8561 57.1882 59.7129 56.6582C59.584 56.1139 59.5482 55.5267 59.6055 54.8965C59.6484 54.166 59.7845 53.543 60.0137 53.0273C60.2428 52.4974 60.4863 52.0605 60.7441 51.7168C61.002 51.373 61.2383 51.1224 61.4531 50.9648C61.6823 50.793 61.8255 50.6927 61.8828 50.6641C61.9831 50.6211 62.0762 50.6139 62.1621 50.6426C62.248 50.6569 62.3411 50.6784 62.4414 50.707C62.4701 50.7214 62.4987 50.7572 62.5273 50.8145C62.5846 50.9147 62.6204 51.1009 62.6348 51.373C62.7064 51.2155 62.7995 51.0866 62.9141 50.9863C63.0286 50.8861 63.1432 50.8145 63.2578 50.7715C63.401 50.7142 63.5443 50.6784 63.6875 50.6641C63.7878 50.6497 63.9596 50.7285 64.2031 50.9004C64.4609 51.0723 64.7044 51.3444 64.9336 51.7168C65.1771 52.0892 65.3848 52.5762 65.5566 53.1777C65.7285 53.765 65.793 54.474 65.75 55.3047ZM64.2891 55.0469C64.3034 54.7031 64.2891 54.3594 64.2461 54.0156C64.2174 53.6576 64.1602 53.3353 64.0742 53.0488C64.0026 52.748 63.9095 52.5117 63.7949 52.3398C63.6803 52.1536 63.5658 52.0605 63.4512 52.0605C63.3223 52.0892 63.179 52.1536 63.0215 52.2539C62.8926 52.3398 62.7493 52.4759 62.5918 52.6621C62.4342 52.8483 62.2839 53.1133 62.1406 53.457C62.1263 53.4141 62.112 53.3353 62.0977 53.2207C62.0833 53.1204 62.069 52.9915 62.0547 52.834C62.0547 52.6621 62.069 52.4329 62.0977 52.1465C61.8971 52.39 61.7396 52.6764 61.625 53.0059C61.5247 53.3353 61.446 53.6504 61.3887 53.9512C61.3314 54.3092 61.2884 54.6673 61.2598 55.0254C61.2454 55.4121 61.2598 55.7917 61.3027 56.1641C61.36 56.5365 61.446 56.8659 61.5605 57.1523C61.6895 57.4388 61.8398 57.668 62.0117 57.8398C62.1836 58.0117 62.3913 58.0905 62.6348 58.0762C62.8783 58.0618 63.0931 57.9616 63.2793 57.7754C63.4655 57.5892 63.6302 57.3529 63.7734 57.0664C63.9167 56.7799 64.0312 56.4577 64.1172 56.0996C64.2031 55.7415 64.2604 55.3906 64.2891 55.0469ZM71.6582 52.2969C71.5436 52.2969 71.4147 52.3613 71.2715 52.4902C71.1426 52.6048 71.0137 52.7695 70.8848 52.9844C70.7559 53.1849 70.627 53.4141 70.498 53.6719C70.3691 53.9154 70.2546 54.166 70.1543 54.4238C69.9108 55.0254 69.6745 55.6413 69.4453 56.2715C69.2161 56.9017 69.0801 57.446 69.0371 57.9043C69.0228 57.9473 69.0156 57.9902 69.0156 58.0332C69.0156 58.0618 69.0156 58.0905 69.0156 58.1191C69.0013 58.1478 68.9941 58.1908 68.9941 58.248C68.9655 58.4486 68.9225 58.6133 68.8652 58.7422C68.8223 58.8568 68.722 58.9355 68.5645 58.9785C68.3926 59.0072 68.2207 59.0286 68.0488 59.043C67.877 59.0573 67.7122 59.043 67.5547 59C67.4544 58.9714 67.3757 58.9212 67.3184 58.8496C67.2754 58.7637 67.2396 58.6706 67.2109 58.5703C67.1966 58.4557 67.1823 58.3483 67.168 58.248C67.168 58.1478 67.168 58.0618 67.168 57.9902C67.168 57.9043 67.1751 57.6393 67.1895 57.1953C67.2038 56.737 67.2181 56.2214 67.2324 55.6484C67.2467 55.0755 67.2539 54.5169 67.2539 53.9727C67.2539 53.4141 67.2467 52.9915 67.2324 52.7051C67.2038 52.5046 67.1751 52.3184 67.1465 52.1465C67.1178 51.9889 67.082 51.8314 67.0391 51.6738C67.0104 51.5163 66.9603 51.3802 66.8887 51.2656C67.0462 51.1797 67.2038 51.1081 67.3613 51.0508C67.5189 50.9935 67.6621 50.9505 67.791 50.9219C67.9486 50.8789 68.0918 50.8503 68.2207 50.8359C68.5645 50.8073 68.8294 50.8073 69.0156 50.8359C69.2161 50.8646 69.3164 51.015 69.3164 51.2871C69.3164 51.5306 69.2949 51.9102 69.252 52.4258C69.2233 52.9271 69.1875 53.6289 69.1445 54.5312C69.3021 54.1732 69.4883 53.7721 69.7031 53.3281C69.918 52.8698 70.1471 52.4473 70.3906 52.0605C70.6341 51.6595 70.8848 51.3301 71.1426 51.0723C71.4004 50.8001 71.6439 50.6641 71.873 50.6641C72.0306 50.6641 72.2096 50.6999 72.4102 50.7715C72.625 50.8288 72.8255 50.9147 73.0117 51.0293C73.1979 51.1296 73.3626 51.2441 73.5059 51.373C73.6634 51.502 73.7708 51.6309 73.8281 51.7598C73.8854 51.903 73.9212 52.125 73.9355 52.4258C73.9499 52.7266 73.9499 53.0632 73.9355 53.4355C74.0501 53.1634 74.179 52.8984 74.3223 52.6406C74.4655 52.3828 74.6087 52.1465 74.752 51.9316C74.9095 51.7025 75.0671 51.5091 75.2246 51.3516C75.3822 51.194 75.5254 51.0866 75.6543 51.0293C75.8262 50.9577 76.0339 50.9434 76.2773 50.9863C76.5208 51.0293 76.7572 51.1081 76.9863 51.2227C77.2298 51.3229 77.4375 51.4447 77.6094 51.5879C77.7956 51.7311 77.9102 51.8672 77.9531 51.9961C77.9961 52.1393 78.0319 52.3613 78.0605 52.6621C78.0892 52.9629 78.1107 53.2923 78.125 53.6504C78.1393 54.0085 78.1465 54.3809 78.1465 54.7676C78.1465 55.14 78.1393 55.4694 78.125 55.7559C78.0964 56.5866 78.1035 57.2454 78.1465 57.7324C78.1895 58.2051 78.3613 58.556 78.6621 58.7852C78.4616 58.9141 78.2754 59.0072 78.1035 59.0645C77.9316 59.1361 77.7812 59.1862 77.6523 59.2148C77.4948 59.2578 77.3587 59.2793 77.2441 59.2793C77.0866 59.2793 76.9577 59.2363 76.8574 59.1504C76.7572 59.0788 76.6784 58.9785 76.6211 58.8496C76.5638 58.7207 76.528 58.5775 76.5137 58.4199C76.4993 58.2624 76.4922 58.1048 76.4922 57.9473C76.4922 57.804 76.4993 57.5677 76.5137 57.2383C76.5423 56.8945 76.5638 56.5078 76.5781 56.0781C76.5924 55.6484 76.5924 55.2116 76.5781 54.7676C76.5638 54.3092 76.528 53.8939 76.4707 53.5215C76.4277 53.1348 76.349 52.8197 76.2344 52.5762C76.1198 52.3327 75.9622 52.2109 75.7617 52.2109C75.5898 52.2109 75.4251 52.3184 75.2676 52.5332C75.11 52.7337 74.9596 53.0059 74.8164 53.3496C74.6732 53.679 74.5443 54.0514 74.4297 54.4668C74.3294 54.8678 74.2363 55.2689 74.1504 55.6699C74.0645 56.071 74 56.4434 73.957 56.7871C73.9141 57.1165 73.8926 57.3815 73.8926 57.582L73.8711 57.3887C73.8711 57.6608 73.8711 57.9115 73.8711 58.1406C73.8854 58.3698 73.8997 58.599 73.9141 58.8281C73.9284 58.9141 73.8496 58.9857 73.6777 59.043C73.5059 59.1146 73.3125 59.1432 73.0977 59.1289C72.8971 59.1289 72.7109 59.0859 72.5391 59C72.3672 58.9141 72.2812 58.7708 72.2812 58.5703C72.2812 58.4271 72.2812 58.2122 72.2812 57.9258C72.2812 57.6393 72.2741 57.3171 72.2598 56.959C72.2598 56.6009 72.2526 56.2285 72.2383 55.8418C72.2383 55.4408 72.2311 55.0612 72.2168 54.7031C72.2168 54.431 72.2096 54.1517 72.1953 53.8652C72.1953 53.5788 72.181 53.321 72.1523 53.0918C72.1237 52.8483 72.0664 52.6549 71.9805 52.5117C71.9089 52.3685 71.8014 52.2969 71.6582 52.2969ZM83.9688 50.4922C84.3698 50.4922 84.7422 50.6068 85.0859 50.8359C85.4297 51.0651 85.7233 51.3659 85.9668 51.7383C86.2103 52.1107 86.4036 52.5404 86.5469 53.0273C86.6901 53.5 86.7617 53.9941 86.7617 54.5098C86.7617 55.0254 86.7044 55.5697 86.5898 56.1426C86.4753 56.7155 86.2962 57.2454 86.0527 57.7324C85.8092 58.2194 85.4941 58.6276 85.1074 58.957C84.7207 59.2721 84.248 59.4297 83.6895 59.4297C83.2454 59.4297 82.8229 59.2721 82.4219 58.957C82.0352 58.6276 81.7344 58.2194 81.5195 57.7324C81.4909 58.2337 81.4264 58.7422 81.3262 59.2578C81.2259 59.7878 81.1758 60.418 81.1758 61.1484C81.1758 61.3633 81.1829 61.6068 81.1973 61.8789C81.2116 62.151 81.2331 62.4232 81.2617 62.6953C81.2904 62.9674 81.3333 63.2181 81.3906 63.4473C81.4479 63.6764 81.5124 63.8555 81.584 63.9844C81.3405 64.1276 81.1185 64.235 80.918 64.3066C80.7318 64.3783 80.5671 64.4284 80.4238 64.457C80.2663 64.5 80.1159 64.5215 79.9727 64.5215C79.7865 64.5215 79.6647 64.4427 79.6074 64.2852C79.5501 64.1276 79.5215 63.8483 79.5215 63.4473C79.5215 63.1895 79.5286 62.8171 79.543 62.3301C79.5716 61.8574 79.6003 61.3132 79.6289 60.6973C79.6719 60.0814 79.7077 59.4368 79.7363 58.7637C79.7793 58.0762 79.8151 57.403 79.8438 56.7441C79.8867 56.0853 79.9154 55.4766 79.9297 54.918C79.9583 54.3451 79.9727 53.8652 79.9727 53.4785C79.9727 53.0059 79.9655 52.6406 79.9512 52.3828C79.9368 52.1107 79.9154 51.9102 79.8867 51.7812C79.8724 51.638 79.8509 51.5378 79.8223 51.4805C79.7936 51.4232 79.7578 51.3587 79.7148 51.2871C79.8438 51.1868 79.9941 51.1009 80.166 51.0293C80.3522 50.9434 80.5312 50.8861 80.7031 50.8574C80.8893 50.8145 81.054 50.8001 81.1973 50.8145C81.3548 50.8288 81.4766 50.8646 81.5625 50.9219C81.6341 50.9935 81.6842 51.1009 81.7129 51.2441C81.7559 51.3874 81.7917 51.6022 81.8203 51.8887C82.0924 51.5163 82.4004 51.194 82.7441 50.9219C83.1022 50.6354 83.5104 50.4922 83.9688 50.4922ZM83.1309 58.1621C83.3887 58.1621 83.6322 58.0404 83.8613 57.7969C84.1048 57.5534 84.3125 57.2454 84.4844 56.873C84.6706 56.4863 84.8138 56.0638 84.9141 55.6055C85.0286 55.1328 85.0859 54.6673 85.0859 54.209C85.0859 53.7077 85.0358 53.2995 84.9355 52.9844C84.8496 52.6549 84.735 52.3971 84.5918 52.2109C84.4629 52.0104 84.3197 51.8743 84.1621 51.8027C84.0189 51.7168 83.89 51.6738 83.7754 51.6738C83.5033 51.6738 83.2454 51.7884 83.002 52.0176C82.7585 52.2324 82.5436 52.5189 82.3574 52.877C82.1712 53.2207 82.0208 53.6074 81.9062 54.0371C81.806 54.4668 81.7559 54.8965 81.7559 55.3262C81.7559 55.7272 81.7917 56.0996 81.8633 56.4434C81.9492 56.7871 82.0566 57.0879 82.1855 57.3457C82.3145 57.6035 82.4577 57.804 82.6152 57.9473C82.7871 58.0905 82.959 58.1621 83.1309 58.1621ZM94.2168 57.9043C94.2454 58.0046 94.2884 58.0977 94.3457 58.1836C94.3887 58.2552 94.446 58.3268 94.5176 58.3984C94.6035 58.4557 94.7038 58.4915 94.8184 58.5059C94.7181 58.7064 94.6178 58.8424 94.5176 58.9141C94.4603 58.957 94.4102 58.9857 94.3672 59C94.2383 59.043 94.0449 59.0645 93.7871 59.0645C93.5293 59.0645 93.2786 58.9857 93.0352 58.8281C92.9492 58.7565 92.8704 58.6491 92.7988 58.5059C92.7272 58.3913 92.6628 58.2337 92.6055 58.0332C92.5625 57.8184 92.5267 57.5462 92.498 57.2168C92.2975 57.6465 92.0684 57.9902 91.8105 58.248C91.5671 58.4915 91.3236 58.6706 91.0801 58.7852C90.8079 58.9427 90.5286 59.0358 90.2422 59.0645C89.8841 59.0931 89.5404 59.0358 89.2109 58.8926C88.8958 58.735 88.6237 58.5059 88.3945 58.2051C88.1797 57.89 88.015 57.5104 87.9004 57.0664C87.7858 56.6224 87.75 56.1211 87.793 55.5625C87.8359 54.9753 87.9505 54.4525 88.1367 53.9941C88.3229 53.5358 88.5449 53.1276 88.8027 52.7695C89.0605 52.4115 89.3327 52.1107 89.6191 51.8672C89.9056 51.6094 90.1777 51.4017 90.4355 51.2441C90.7077 51.0723 90.9368 50.9505 91.123 50.8789C91.3236 50.793 91.4525 50.7428 91.5098 50.7285C91.6673 50.6855 91.8034 50.6712 91.918 50.6855C92.0326 50.6999 92.1328 50.7643 92.2188 50.8789C92.2474 50.9219 92.2832 50.972 92.3262 51.0293C92.3548 51.0866 92.3906 51.1654 92.4336 51.2656C92.4766 51.3516 92.5124 51.4518 92.541 51.5664C92.1973 51.724 91.875 51.903 91.5742 52.1035C91.2734 52.2897 90.9941 52.5189 90.7363 52.791C90.4928 53.0632 90.278 53.3926 90.0918 53.7793C89.9056 54.166 89.7624 54.6387 89.6621 55.1973C89.5189 55.8991 89.5547 56.4648 89.7695 56.8945C89.9987 57.3242 90.3066 57.5033 90.6934 57.4316C90.9225 57.36 91.1445 57.224 91.3594 57.0234C91.5456 56.8516 91.7389 56.5938 91.9395 56.25C92.1543 55.9062 92.3548 55.4336 92.541 54.832C92.6126 53.9727 92.6699 53.2995 92.7129 52.8125C92.7702 52.3112 92.8203 51.9316 92.8633 51.6738C92.9206 51.373 92.9635 51.1725 92.9922 51.0723C93.0352 51.0007 93.1211 50.9362 93.25 50.8789C93.3789 50.8073 93.5221 50.75 93.6797 50.707C93.8372 50.6641 93.9805 50.6426 94.1094 50.6426C94.2383 50.6283 94.3242 50.6283 94.3672 50.6426C94.3958 50.6569 94.4102 50.8359 94.4102 51.1797C94.4102 51.5091 94.3958 51.9316 94.3672 52.4473C94.3529 52.9486 94.3314 53.5 94.3027 54.1016C94.2741 54.6888 94.2454 55.2474 94.2168 55.7773C94.2025 56.3073 94.1882 56.7728 94.1738 57.1738C94.1738 57.5605 94.1882 57.804 94.2168 57.9043ZM98.2988 58.4199C98.2845 58.5059 98.2057 58.599 98.0625 58.6992C97.9336 58.7852 97.776 58.8639 97.5898 58.9355C97.418 59.0072 97.2533 59.0501 97.0957 59.0645C96.9382 59.0931 96.8307 59.0788 96.7734 59.0215C96.7161 58.9642 96.623 58.8568 96.4941 58.6992C96.3652 58.5417 96.2865 58.2839 96.2578 57.9258C96.2292 57.5534 96.2148 57.0879 96.2148 56.5293C96.2148 55.9564 96.2077 55.3262 96.1934 54.6387V53.7793C96.1934 53.5215 96.1862 53.2207 96.1719 52.877C96.1719 52.5332 96.1647 52.1751 96.1504 51.8027C96.2793 51.7311 96.4082 51.6667 96.5371 51.6094C96.6803 51.5378 96.8092 51.4805 96.9238 51.4375C97.0527 51.3802 97.1745 51.3372 97.2891 51.3086C97.5898 51.2227 97.819 51.1725 97.9766 51.1582C98.1341 51.1439 98.2272 51.194 98.2559 51.3086C98.2702 51.3945 98.263 51.6022 98.2344 51.9316C98.2057 52.2181 98.1699 52.6549 98.127 53.2422C98.084 53.8151 98.0124 54.6172 97.9121 55.6484C98.0983 55.1901 98.2487 54.7962 98.3633 54.4668C98.4922 54.1374 98.5996 53.8724 98.6855 53.6719C98.7715 53.4284 98.8503 53.235 98.9219 53.0918C98.9935 52.9056 99.0866 52.6979 99.2012 52.4688C99.3158 52.2396 99.4303 52.0247 99.5449 51.8242C99.6738 51.6237 99.7884 51.4447 99.8887 51.2871C100.003 51.1296 100.089 51.0365 100.146 51.0078C100.189 50.9792 100.318 50.9792 100.533 51.0078C100.748 51.0365 100.977 51.1081 101.221 51.2227C101.464 51.3229 101.701 51.4733 101.93 51.6738C102.159 51.86 102.309 52.0892 102.381 52.3613C102.467 52.6764 102.495 53.0918 102.467 53.6074C102.452 54.123 102.417 54.653 102.359 55.1973C102.316 55.7415 102.281 56.2572 102.252 56.7441C102.223 57.2311 102.252 57.6035 102.338 57.8613C102.367 58.0046 102.41 58.1335 102.467 58.248C102.495 58.3626 102.531 58.4701 102.574 58.5703C102.632 58.6562 102.689 58.7207 102.746 58.7637C102.402 58.9212 102.123 59.0358 101.908 59.1074C101.693 59.179 101.529 59.2292 101.414 59.2578C101.271 59.3008 101.171 59.3151 101.113 59.3008C100.984 59.2578 100.87 59.1504 100.77 58.9785C100.684 58.8066 100.605 58.5345 100.533 58.1621C100.505 58.0475 100.49 57.8613 100.49 57.6035C100.505 57.3314 100.526 57.0306 100.555 56.7012C100.583 56.3574 100.612 56.0065 100.641 55.6484C100.684 55.276 100.712 54.9323 100.727 54.6172C100.755 54.2878 100.777 54.0085 100.791 53.7793C100.805 53.5358 100.805 53.3711 100.791 53.2852C100.719 53.0273 100.619 52.8483 100.49 52.748C100.361 52.6335 100.261 52.6191 100.189 52.7051C100.003 52.9199 99.8027 53.2708 99.5879 53.7578C99.3874 54.2305 99.194 54.7533 99.0078 55.3262C98.8216 55.8848 98.6641 56.4434 98.5352 57.002C98.4062 57.5605 98.3275 58.0332 98.2988 58.4199ZM110.352 50.75C110.38 52.0104 110.402 53.1133 110.416 54.0586C110.43 55.0039 110.445 55.7988 110.459 56.4434C110.473 57.2025 110.48 57.8542 110.48 58.3984C110.495 59.0716 110.438 59.7663 110.309 60.4824C110.194 61.2129 110.001 61.8789 109.729 62.4805C109.456 63.082 109.098 63.5762 108.654 63.9629C108.21 64.3496 107.673 64.543 107.043 64.543C106.284 64.543 105.704 64.3854 105.303 64.0703C104.902 63.7695 104.608 63.4258 104.422 63.0391C104.236 62.6523 104.128 62.2871 104.1 61.9434C104.071 61.6139 104.057 61.4206 104.057 61.3633C104.057 61.2487 104.128 61.1198 104.271 60.9766C104.415 60.8333 104.63 60.7044 104.916 60.5898C105.031 60.5469 105.145 60.5111 105.26 60.4824C105.36 60.4538 105.46 60.4323 105.561 60.418C105.661 60.4036 105.754 60.4108 105.84 60.4395C105.697 60.6973 105.611 60.9909 105.582 61.3203C105.568 61.6497 105.611 61.9577 105.711 62.2441C105.826 62.5449 105.99 62.7956 106.205 62.9961C106.42 63.1966 106.692 63.2969 107.021 63.2969C107.48 63.2969 107.838 63.1608 108.096 62.8887C108.368 62.6309 108.568 62.3086 108.697 61.9219C108.84 61.5352 108.926 61.127 108.955 60.6973C108.998 60.2676 109.02 59.888 109.02 59.5586C109.02 59.3008 109.012 58.9714 108.998 58.5703C108.998 58.1549 108.977 57.6966 108.934 57.1953C108.762 57.4818 108.561 57.7611 108.332 58.0332C108.103 58.291 107.859 58.5202 107.602 58.7207C107.344 58.9212 107.079 59.0788 106.807 59.1934C106.549 59.3223 106.291 59.3867 106.033 59.3867C105.589 59.3867 105.231 59.2507 104.959 58.9785C104.687 58.6921 104.479 58.3411 104.336 57.9258C104.193 57.4961 104.092 57.0378 104.035 56.5508C103.992 56.0495 103.971 55.5911 103.971 55.1758C103.971 54.8607 103.985 54.4811 104.014 54.0371C104.042 53.5788 104.078 53.1419 104.121 52.7266C104.164 52.3112 104.214 51.9531 104.271 51.6523C104.343 51.3372 104.415 51.1582 104.486 51.1152C104.902 50.8717 105.31 50.7357 105.711 50.707C106.112 50.6784 106.413 50.7285 106.613 50.8574C106.441 50.9863 106.298 51.2012 106.184 51.502C106.069 51.8027 105.976 52.1393 105.904 52.5117C105.833 52.8698 105.783 53.2493 105.754 53.6504C105.725 54.0371 105.711 54.388 105.711 54.7031C105.711 54.9609 105.718 55.2689 105.732 55.627C105.747 55.985 105.775 56.3288 105.818 56.6582C105.876 56.9876 105.954 57.2669 106.055 57.4961C106.155 57.7253 106.284 57.8398 106.441 57.8398C106.757 57.8398 107.05 57.7253 107.322 57.4961C107.594 57.2669 107.831 56.9805 108.031 56.6367C108.246 56.293 108.411 55.9277 108.525 55.541C108.64 55.14 108.697 54.7676 108.697 54.4238V54.252C108.669 53.8796 108.64 53.5286 108.611 53.1992C108.583 52.8555 108.554 52.5475 108.525 52.2754C108.511 52.0033 108.497 51.7812 108.482 51.6094C108.482 51.4232 108.482 51.3014 108.482 51.2441C108.482 51.1009 108.576 50.972 108.762 50.8574C108.962 50.7428 109.177 50.6641 109.406 50.6211C109.65 50.5638 109.865 50.5423 110.051 50.5566C110.251 50.571 110.352 50.6354 110.352 50.75Z" fill="url(#paint1_linear)"/>
<path d="M36.5625 18H8.4375L0 27.9615L22.5 55L45 27.9615L36.5625 18ZM13.05 26.5385H4.92188L9.19687 21.4723L13.05 26.5385ZM18.0563 26.5385L22.5 21.3015L26.9437 26.5385H18.0563ZM28.125 29.3846L22.5 48.3969L16.875 29.3846H28.125ZM14.7938 29.3846L20.1094 47.7138L4.86563 29.3846H14.7938ZM30.2344 29.3846H40.1625L24.8906 47.7138L30.2344 29.3846ZM31.9781 26.5385L35.8312 21.4723L40.0781 26.5385H31.9219H31.9781ZM33.75 20.8462L29.7 25.9977L25.5938 20.8462H33.75ZM15.2719 26.0546L11.25 20.8462H19.4063L15.2719 26.0546Z" fill="#C65300"/>
<path d="M36.5625 18H8.4375L0 27.9615L22.5 55L45 27.9615L36.5625 18ZM13.05 26.5385H4.92188L9.19687 21.4723L13.05 26.5385ZM18.0563 26.5385L22.5 21.3015L26.9437 26.5385H18.0563ZM28.125 29.3846L22.5 48.3969L16.875 29.3846H28.125ZM14.7938 29.3846L20.1094 47.7138L4.86563 29.3846H14.7938ZM30.2344 29.3846H40.1625L24.8906 47.7138L30.2344 29.3846ZM31.9781 26.5385L35.8312 21.4723L40.0781 26.5385H31.9219H31.9781ZM33.75 20.8462L29.7 25.9977L25.5938 20.8462H33.75ZM15.2719 26.0546L11.25 20.8462H19.4063L15.2719 26.0546Z" fill="url(#paint2_linear)"/>
<defs>
<linearGradient id="paint0_linear" x1="89.5282" y1="0" x2="89.5282" y2="70" gradientUnits="userSpaceOnUse">
<stop stop-color="#FFC700"/>
<stop offset="1" stop-color="white" stop-opacity="0"/>
</linearGradient>
<linearGradient id="paint1_linear" x1="82.3948" y1="39" x2="82.3948" y2="70.5" gradientUnits="userSpaceOnUse">
<stop stop-color="#FFE600"/>
<stop offset="1" stop-color="white" stop-opacity="0"/>
</linearGradient>
<linearGradient id="paint2_linear" x1="22.5" y1="18" x2="22.5" y2="55" gradientUnits="userSpaceOnUse">
<stop stop-color="#FFC700"/>
<stop offset="1" stop-color="white" stop-opacity="0"/>
</linearGradient>
</defs>
</svg>
